<svg width="196" height="158" viewBox="0 0 196 158" fill="none" xmlns="http://www.w3.org/2000/svg">
<path fill-rule="evenodd" clip-rule="evenodd" d="M19.5996 78.633C19.5996 111.747 40.1301 140.067 69.1568 151.556C32.9271 147.011 4.89992 116.095 4.89992 78.633C4.89992 41.1709 32.9271 10.255 69.1569 5.70974C40.1301 17.1995 19.5996 45.5187 19.5996 78.633ZM88.4797 5.81994C59.5994 17.3797 39.1993 45.6241 39.1993 78.633C39.1993 111.642 59.5994 139.886 88.4797 151.446C88.386 151.459 88.2922 151.472 88.1984 151.484C52.2393 146.693 24.4995 115.903 24.4995 78.633C24.4995 41.3635 52.2394 10.5729 88.1985 5.78192C88.2923 5.79442 88.386 5.80709 88.4797 5.81994ZM97.9982 0.234388H117.598C160.896 0.234388 195.997 35.3347 195.997 78.633C195.997 121.931 160.896 157.032 117.598 157.032L117.512 157.032H98.0839L97.9982 157.032L97.9126 157.032H78.4686L78.3987 157.032C35.1003 157.032 0 121.931 0 78.633C0 35.3346 35.1003 0.234375 78.3987 0.234375C78.4142 0.234375 78.4296 0.234379 78.4451 0.234388H97.9982Z" fill="black"/>
<path d="M180.403 66.237C179.372 61.8767 177.123 57.8007 174.03 54.7674C170.656 51.4498 166.532 49.4592 162.034 49.0801C161.378 48.9853 160.722 48.9853 160.066 48.9853C153.224 48.9853 146.664 52.0186 139.822 58.3695C138.042 60.0757 136.355 61.9714 134.668 63.7724C131.2 67.6588 127.92 71.3556 123.796 72.967C123.703 72.967 123.703 72.967 123.703 72.967C123.703 72.967 123.609 72.967 123.609 72.8722C123.609 72.7775 123.609 72.7775 123.609 72.7775C125.108 68.6067 128.763 65.2891 132.7 61.7819C134.574 60.1705 136.449 58.4642 138.042 56.5685C144.883 49.0801 147.882 41.6865 147.226 34.1981C146.851 29.6482 144.883 25.4775 141.603 22.065C138.604 18.937 134.574 16.662 130.263 15.6193C128.482 15.1454 126.795 14.9558 125.015 14.9558C122.484 14.9558 119.954 15.4298 117.705 16.3777C115.455 15.4298 113.019 14.9558 110.394 14.9558C108.614 14.9558 106.927 15.1454 105.146 15.6193C100.835 16.662 96.8051 18.937 93.8061 22.065C90.5259 25.4775 88.5578 29.6482 88.1829 34.1981C87.5268 41.7813 90.5259 49.0801 97.3674 56.5685C99.0543 58.3695 100.929 60.0757 102.709 61.7819C106.552 65.2891 110.207 68.6067 111.8 72.7775C111.8 72.8722 111.8 72.8722 111.8 72.8722C111.8 72.967 111.707 72.967 111.707 72.967C111.707 72.967 111.706 72.967 111.613 72.967C107.489 71.4504 104.209 67.7536 100.741 63.7724C99.148 61.8767 97.4611 59.9809 95.5867 58.3695C88.8389 52.0186 82.1848 48.9853 75.3433 48.9853C74.6872 48.9853 74.0312 48.9853 73.3752 49.0801C68.8766 49.4592 64.7529 51.4498 61.379 54.7674C58.2863 57.8007 56.037 61.8767 55.0061 66.237C53.8815 70.6921 54.1626 75.1472 55.7558 78.9388C54.1626 82.7304 53.8815 87.1855 55.0061 91.6406C56.037 96.0009 58.2863 100.077 61.379 103.11C64.7529 106.428 68.8766 108.418 73.3752 108.797C74.0312 108.892 74.6872 108.892 75.3433 108.892C82.1848 108.892 88.7452 105.859 95.5867 99.5081C97.3674 97.8019 99.0543 95.9061 100.741 94.1051C104.209 90.2187 107.489 86.522 111.613 84.9105C111.706 84.9105 111.707 84.9105 111.707 84.9105C111.707 84.9105 111.8 84.9105 111.8 85.0053C111.8 85.1001 111.8 85.1001 111.8 85.1001C110.301 89.2708 106.646 92.5885 102.709 96.0957C100.835 97.7071 98.9606 99.4133 97.3674 101.309C90.5259 108.798 87.5268 116.191 88.1829 123.679C88.5578 128.229 90.5259 132.4 93.8061 135.813C96.8051 138.941 100.835 141.216 105.146 142.258C106.927 142.732 108.614 142.922 110.394 142.922C112.925 142.922 115.455 142.448 117.705 141.5C119.954 142.448 122.391 142.922 125.015 142.922C126.795 142.922 128.482 142.732 130.263 142.258C134.574 141.216 138.604 138.941 141.603 135.813C144.883 132.4 146.851 128.229 147.226 123.679C147.882 116.096 144.883 108.798 138.042 101.309C136.355 99.5081 134.48 97.8019 132.7 96.0957C128.857 92.5885 125.202 89.2708 123.609 85.1001C123.609 85.0053 123.609 85.0053 123.609 85.0053C123.609 84.9105 123.703 84.9105 123.703 84.9105C123.703 84.9105 123.703 84.9105 123.796 84.9105C127.92 86.4272 131.2 90.1239 134.668 94.1051C136.261 96.0009 137.948 97.8967 139.822 99.5081C146.57 105.859 153.224 108.892 160.066 108.892C160.722 108.892 161.378 108.892 162.034 108.797C166.532 108.418 170.656 106.428 174.03 103.11C177.123 100.077 179.372 96.0009 180.403 91.6406C181.528 87.1855 181.247 82.7304 179.653 78.9388C181.153 75.1472 181.434 70.6921 180.403 66.237Z" fill="white"/>
</svg>
