<svg width="12" height="12" viewBox="0 0 12 12" fill="none" xmlns="http://www.w3.org/2000/svg">
<path d="M11 6C11 8.76142 8.76142 11 6 11C5.33492 11 4.70017 10.8701 4.11972 10.6344C4.00862 10.5893 3.95308 10.5667 3.90818 10.5567C3.86426 10.5468 3.83175 10.5432 3.78674 10.5432C3.74073 10.5432 3.6906 10.5516 3.59036 10.5683L1.61376 10.8977C1.40677 10.9322 1.30327 10.9495 1.22844 10.9174C1.16293 10.8893 1.11074 10.8371 1.08264 10.7716C1.05055 10.6967 1.06779 10.5932 1.10229 10.3862L1.43173 8.40964C1.44843 8.3094 1.45679 8.25928 1.45678 8.21326C1.45678 8.16825 1.45318 8.13574 1.44333 8.09182C1.43327 8.04692 1.41071 7.99138 1.36559 7.88028C1.12985 7.29983 1 6.66508 1 6C1 3.23858 3.23858 1 6 1C8.76142 1 11 3.23858 11 6Z" stroke="#667085" stroke-linecap="round" stroke-linejoin="round"/>
</svg>
