<svg width="87" height="32" viewBox="0 0 87 32" fill="none" xmlns="http://www.w3.org/2000/svg">
<mask id="path-1-inside-1_171_244" fill="white">
<path fill-rule="evenodd" clip-rule="evenodd" d="M87 0H0V29.0002C1.62453 29.0175 2.93617 30.3539 2.93617 32H7.88298C7.88298 30.3431 9.21184 29 10.8511 29C12.4903 29 13.8191 30.3431 13.8191 32H18.766C18.766 30.3431 20.0948 29 21.734 29C23.3733 29 24.7021 30.3431 24.7021 32H29.6489C29.6489 30.3431 30.9778 29 32.617 29C34.2562 29 35.5851 30.3431 35.5851 32H40.5319C40.5319 30.3431 41.8608 29 43.5 29C45.1392 29 46.4681 30.3431 46.4681 32H51.4149C51.4149 30.3431 52.7438 29 54.383 29C56.0222 29 57.3511 30.3431 57.3511 32H62.2979C62.2979 30.3431 63.6267 29 65.266 29C66.9052 29 68.234 30.3431 68.234 32H73.1809C73.1809 30.3431 74.5097 29 76.1489 29C77.7882 29 79.117 30.3431 79.117 32H84.0638C84.0638 30.3539 85.3755 29.0175 87 29.0002V0Z"/>
</mask>
<path fill-rule="evenodd" clip-rule="evenodd" d="M87 0H0V29.0002C1.62453 29.0175 2.93617 30.3539 2.93617 32H7.88298C7.88298 30.3431 9.21184 29 10.8511 29C12.4903 29 13.8191 30.3431 13.8191 32H18.766C18.766 30.3431 20.0948 29 21.734 29C23.3733 29 24.7021 30.3431 24.7021 32H29.6489C29.6489 30.3431 30.9778 29 32.617 29C34.2562 29 35.5851 30.3431 35.5851 32H40.5319C40.5319 30.3431 41.8608 29 43.5 29C45.1392 29 46.4681 30.3431 46.4681 32H51.4149C51.4149 30.3431 52.7438 29 54.383 29C56.0222 29 57.3511 30.3431 57.3511 32H62.2979C62.2979 30.3431 63.6267 29 65.266 29C66.9052 29 68.234 30.3431 68.234 32H73.1809C73.1809 30.3431 74.5097 29 76.1489 29C77.7882 29 79.117 30.3431 79.117 32H84.0638C84.0638 30.3539 85.3755 29.0175 87 29.0002V0Z" fill="#F2F4F7"/>
<path d="M0 0V-1H-1V0H0ZM87 0H88V-1H87V0ZM0 29.0002H-1V29.9896L-0.0106473 30.0001L0 29.0002ZM2.93617 32H1.93617V33H2.93617V32ZM7.88298 32V33H8.88298V32H7.88298ZM13.8191 32H12.8191V33H13.8191V32ZM18.766 32V33H19.766V32H18.766ZM24.7021 32H23.7021V33H24.7021V32ZM29.6489 32V33H30.6489V32H29.6489ZM35.5851 32H34.5851V33H35.5851V32ZM40.5319 32V33H41.5319V32H40.5319ZM46.4681 32H45.4681V33H46.4681V32ZM51.4149 32V33H52.4149V32H51.4149ZM57.3511 32H56.3511V33H57.3511V32ZM62.2979 32V33H63.2979V32H62.2979ZM68.234 32H67.234V33H68.234V32ZM73.1809 32V33H74.1809V32H73.1809ZM79.117 32H78.117V33H79.117V32ZM84.0638 32V33H85.0638V32H84.0638ZM87 29.0002L87.0107 30.0001L88 29.9896V29.0002H87ZM0 1H87V-1H0V1ZM1 29.0002V0H-1V29.0002H1ZM3.93617 32C3.93617 29.8151 2.19259 28.0235 0.0106473 28.0002L-0.0106473 30.0001C1.05646 30.0115 1.93617 30.8927 1.93617 32H3.93617ZM7.88298 31H2.93617V33H7.88298V31ZM10.8511 28C8.6495 28 6.88298 29.801 6.88298 32H8.88298C8.88298 30.8853 9.77418 30 10.8511 30V28ZM14.8191 32C14.8191 29.801 13.0526 28 10.8511 28V30C11.928 30 12.8191 30.8853 12.8191 32H14.8191ZM18.766 31H13.8191V33H18.766V31ZM19.766 32C19.766 30.8853 20.6572 30 21.734 30V28C19.5325 28 17.766 29.801 17.766 32H19.766ZM21.734 30C22.8109 30 23.7021 30.8853 23.7021 32H25.7021C25.7021 29.801 23.9356 28 21.734 28V30ZM29.6489 31H24.7021V33H29.6489V31ZM32.617 28C30.4155 28 28.6489 29.801 28.6489 32H30.6489C30.6489 30.8853 31.5401 30 32.617 30V28ZM36.5851 32C36.5851 29.801 34.8186 28 32.617 28V30C33.6939 30 34.5851 30.8853 34.5851 32H36.5851ZM40.5319 31H35.5851V33H40.5319V31ZM41.5319 32C41.5319 30.8853 42.4231 30 43.5 30V28C41.2984 28 39.5319 29.801 39.5319 32H41.5319ZM43.5 30C44.5769 30 45.4681 30.8853 45.4681 32H47.4681C47.4681 29.801 45.7016 28 43.5 28V30ZM51.4149 31H46.4681V33H51.4149V31ZM54.383 28C52.1814 28 50.4149 29.801 50.4149 32H52.4149C52.4149 30.8853 53.3061 30 54.383 30V28ZM58.3511 32C58.3511 29.801 56.5845 28 54.383 28V30C55.4599 30 56.3511 30.8853 56.3511 32H58.3511ZM62.2979 31H57.3511V33H62.2979V31ZM63.2979 32C63.2979 30.8853 64.1891 30 65.266 30V28C63.0644 28 61.2979 29.801 61.2979 32H63.2979ZM65.266 30C66.3428 30 67.234 30.8853 67.234 32H69.234C69.234 29.801 67.4675 28 65.266 28V30ZM73.1809 31H68.234V33H73.1809V31ZM76.1489 28C73.9474 28 72.1809 29.801 72.1809 32H74.1809C74.1809 30.8853 75.0721 30 76.1489 30V28ZM80.117 32C80.117 29.801 78.3505 28 76.1489 28V30C77.2258 30 78.117 30.8853 78.117 32H80.117ZM84.0638 31H79.117V33H84.0638V31ZM85.0638 32C85.0638 30.8927 85.9435 30.0115 87.0107 30.0001L86.9893 28.0002C84.8074 28.0235 83.0638 29.8151 83.0638 32H85.0638ZM86 0V29.0002H88V0H86Z" fill="#D0D5DD" mask="url(#path-1-inside-1_171_244)"/>
</svg>
