<svg width="20" height="20" viewBox="0 0 20 20" fill="none" xmlns="http://www.w3.org/2000/svg">
<path d="M10.0003 17.5L8.79199 16.4166C7.38921 15.1528 6.22949 14.0625 5.31282 13.1458C4.39616 12.2291 3.66699 11.4062 3.12533 10.6771C2.58366 9.9479 2.20519 9.27776 1.98991 8.66665C1.77463 8.05553 1.66699 7.43053 1.66699 6.79165C1.66699 5.48609 2.10449 4.39581 2.97949 3.52081C3.85449 2.64581 4.94477 2.20831 6.25032 2.20831C6.97255 2.20831 7.66005 2.36109 8.31282 2.66665C8.9656 2.9722 9.5281 3.40276 10.0003 3.95831C10.4725 3.40276 11.035 2.9722 11.6878 2.66665C12.3406 2.36109 13.0281 2.20831 13.7503 2.20831C15.0559 2.20831 16.1462 2.64581 17.0212 3.52081C17.8962 4.39581 18.3337 5.48609 18.3337 6.79165C18.3337 7.43053 18.226 8.05553 18.0107 8.66665C17.7955 9.27776 17.417 9.9479 16.8753 10.6771C16.3337 11.4062 15.6045 12.2291 14.6878 13.1458C13.7712 14.0625 12.6114 15.1528 11.2087 16.4166L10.0003 17.5ZM10.0003 15.25C11.3337 14.0555 12.4309 13.0312 13.292 12.1771C14.1531 11.3229 14.8337 10.5798 15.3337 9.9479C15.8337 9.31595 16.1809 8.75345 16.3753 8.2604C16.5698 7.76734 16.667 7.27776 16.667 6.79165C16.667 5.95831 16.3892 5.26387 15.8337 4.70831C15.2781 4.15276 14.5837 3.87498 13.7503 3.87498C13.0975 3.87498 12.4934 4.05901 11.9378 4.42706C11.3823 4.79512 11.0003 5.26387 10.792 5.83331H9.20866C9.00032 5.26387 8.61838 4.79512 8.06282 4.42706C7.50727 4.05901 6.9031 3.87498 6.25032 3.87498C5.41699 3.87498 4.72255 4.15276 4.16699 4.70831C3.61144 5.26387 3.33366 5.95831 3.33366 6.79165C3.33366 7.27776 3.43088 7.76734 3.62533 8.2604C3.81977 8.75345 4.16699 9.31595 4.66699 9.9479C5.16699 10.5798 5.84755 11.3229 6.70866 12.1771C7.56977 13.0312 8.66699 14.0555 10.0003 15.25Z" fill="#5F6368"/>
</svg>
