<svg width="42" height="30" viewBox="0 0 42 30" fill="none" xmlns="http://www.w3.org/2000/svg">
<path fill-rule="evenodd" clip-rule="evenodd" d="M3.79737 15C3.79737 21.3273 7.71498 26.7396 13.2569 28.9436C6.31947 28.0852 0.949367 22.1697 0.949367 15C0.949367 7.83029 6.31947 1.91484 13.2569 1.05643C7.71499 3.26041 3.79737 8.6727 3.79737 15ZM16.9772 1.08739C11.4761 3.31077 7.59486 8.70213 7.59486 15C7.59486 21.2979 11.4761 26.6892 16.9772 28.9126L16.8987 28.9234C10.0367 27.9965 4.74674 22.116 4.74674 15C4.74674 7.88398 10.0367 2.0035 16.8987 1.07656L16.9772 1.08739ZM18.7974 0H22.5949H26.3924H26.3924C34.6767 2.26777e-05 41.3924 6.71574 41.3924 15C41.3924 23.2843 34.6766 30 26.3924 30L26.3791 30H22.6081L22.5949 30L22.5816 30H18.8106L18.7974 30L18.7841 30H15.1898V29.9988C15.1267 29.9996 15.0634 30 15 30C6.71573 30 0 23.2843 0 15C0 6.71573 6.71573 0 15 0H18.7974ZM35.9681 10.0506C36.5982 10.6717 37.0564 11.5063 37.2664 12.3992C37.4764 13.3114 37.4191 14.2236 37.1136 15C37.4382 15.7764 37.4955 16.6886 37.2664 17.6009C37.0564 18.4937 36.5982 19.3283 35.9681 19.9494C35.2808 20.6287 34.4407 21.0363 33.5243 21.1139C33.3907 21.1333 33.257 21.1333 33.1234 21.1333C31.7296 21.1333 30.3741 20.5123 28.9995 19.2118C28.6176 18.8819 28.274 18.4937 27.9494 18.1055C27.243 17.2903 26.5747 16.5333 25.7347 16.2228H25.7156C25.7156 16.2228 25.6965 16.2228 25.6965 16.2422V16.2616C26.0189 17.1099 26.7557 17.7858 27.5327 18.4987L27.5484 18.5131C27.6376 18.599 27.7279 18.6849 27.8186 18.771C28.0966 19.0354 28.3775 19.3025 28.6367 19.5806C30.0304 21.1139 30.6414 22.6085 30.5077 24.1612C30.4314 25.0928 30.0304 25.9468 29.3622 26.6456C28.7512 27.2861 27.9303 27.7519 27.052 27.9654C26.6893 28.0625 26.3456 28.1013 25.9829 28.1013C25.4483 28.1013 24.9519 28.0042 24.4937 27.8101C24.0355 28.0042 23.52 28.1013 23.0045 28.1013C22.6418 28.1013 22.2981 28.0625 21.9354 27.9654C21.0571 27.7519 20.2361 27.2861 19.6252 26.6456C18.957 25.9468 18.556 25.0928 18.4797 24.1612C18.346 22.6279 18.957 21.1139 20.3507 19.5806C20.6753 19.1924 21.0571 18.8431 21.4389 18.5131C22.2408 17.7949 22.9854 17.1156 23.2909 16.2616V16.2422C23.2909 16.2228 23.2718 16.2228 23.2718 16.2228H23.2527C22.4183 16.5505 21.7534 17.2996 21.0522 18.0895L21.038 18.1055C20.9535 18.1961 20.8691 18.2879 20.7843 18.3801C20.5243 18.6627 20.2615 18.9483 19.9879 19.2118C18.5942 20.5123 17.2578 21.1333 15.864 21.1333C15.7304 21.1333 15.5967 21.1333 15.4631 21.1139C14.5467 21.0363 13.7066 20.6287 13.0193 19.9494C12.3892 19.3283 11.931 18.4937 11.721 17.6009C11.4919 16.6886 11.5492 15.7764 11.8738 15C11.5492 14.2236 11.4919 13.3114 11.721 12.3992C11.931 11.5063 12.3892 10.6717 13.0193 10.0506C13.7066 9.37132 14.5467 8.96372 15.4631 8.88609C15.5967 8.86668 15.7303 8.86668 15.8639 8.86668H15.864C17.2578 8.86668 18.6133 9.48778 19.9879 10.7882C20.3698 11.1182 20.7134 11.5063 21.038 11.8945C21.7444 12.7097 22.4126 13.4667 23.2527 13.7772H23.2718C23.2718 13.7772 23.2909 13.7772 23.2909 13.7578V13.7384C22.9685 12.8902 22.2318 12.2143 21.4548 11.5015L21.4389 11.4869C21.3498 11.4011 21.2595 11.3153 21.169 11.2291C20.8909 10.9647 20.6099 10.6976 20.3507 10.4194C18.957 8.88609 18.346 7.39158 18.4797 5.83883C18.556 4.90719 18.957 4.05317 19.6252 3.35444C20.2361 2.71393 21.0571 2.24811 21.9354 2.03461C22.2981 1.93757 22.6418 1.89874 23.0045 1.89874C23.5391 1.89874 24.0355 1.99579 24.4937 2.18988C24.9519 1.99579 25.4674 1.89874 25.9829 1.89874C26.3456 1.89874 26.6893 1.93757 27.052 2.03461C27.9303 2.24811 28.7512 2.71393 29.3622 3.35444C30.0304 4.05317 30.4314 4.90719 30.5077 5.83883C30.6414 7.37217 30.0304 8.88609 28.6367 10.4194C28.3121 10.8076 27.9303 11.157 27.5484 11.4869C26.7466 12.2051 26.002 12.8844 25.6965 13.7384V13.7578C25.6965 13.7772 25.7156 13.7772 25.7156 13.7772H25.7347C26.5691 13.4495 27.234 12.7004 27.9352 11.9105L27.9494 11.8945C28.0338 11.8039 28.1183 11.7121 28.203 11.62C28.4631 11.3373 28.7259 11.0517 28.9995 10.7882C30.3932 9.48778 31.7296 8.86668 33.1234 8.86668H33.1235C33.2571 8.86668 33.3907 8.86668 33.5243 8.88609C34.4407 8.96372 35.2808 9.37132 35.9681 10.0506Z" fill="black"/>
</svg>
