<svg width="87" height="32" viewBox="0 0 87 32" fill="none" xmlns="http://www.w3.org/2000/svg">
<mask id="path-1-inside-1_171_245" fill="white">
<path fill-rule="evenodd" clip-rule="evenodd" d="M0 2.99983C1.62453 2.98253 2.93617 1.64609 2.93617 0H7.88298C7.88298 1.65685 9.21184 3 10.8511 3C12.4903 3 13.8191 1.65685 13.8191 0H18.766C18.766 1.65685 20.0948 3 21.734 3C23.3733 3 24.7021 1.65685 24.7021 0H29.6489C29.6489 1.65685 30.9778 3 32.617 3C34.2562 3 35.5851 1.65685 35.5851 0H40.5319C40.5319 1.65685 41.8608 3 43.5 3C45.1392 3 46.4681 1.65685 46.4681 0H51.4149C51.4149 1.65685 52.7438 3 54.383 3C56.0222 3 57.3511 1.65685 57.3511 0H62.2979C62.2979 1.65685 63.6267 3 65.266 3C66.9052 3 68.234 1.65685 68.234 0H73.1809C73.1809 1.65685 74.5097 3 76.1489 3C77.7882 3 79.117 1.65685 79.117 0H84.0638C84.0638 1.64609 85.3755 2.98253 87 2.99983V32H0V2.99983Z"/>
</mask>
<path fill-rule="evenodd" clip-rule="evenodd" d="M0 2.99983C1.62453 2.98253 2.93617 1.64609 2.93617 0H7.88298C7.88298 1.65685 9.21184 3 10.8511 3C12.4903 3 13.8191 1.65685 13.8191 0H18.766C18.766 1.65685 20.0948 3 21.734 3C23.3733 3 24.7021 1.65685 24.7021 0H29.6489C29.6489 1.65685 30.9778 3 32.617 3C34.2562 3 35.5851 1.65685 35.5851 0H40.5319C40.5319 1.65685 41.8608 3 43.5 3C45.1392 3 46.4681 1.65685 46.4681 0H51.4149C51.4149 1.65685 52.7438 3 54.383 3C56.0222 3 57.3511 1.65685 57.3511 0H62.2979C62.2979 1.65685 63.6267 3 65.266 3C66.9052 3 68.234 1.65685 68.234 0H73.1809C73.1809 1.65685 74.5097 3 76.1489 3C77.7882 3 79.117 1.65685 79.117 0H84.0638C84.0638 1.64609 85.3755 2.98253 87 2.99983V32H0V2.99983Z" fill="#7A5AF8"/>
<path d="M0 2.99983L-0.0106479 1.99989L-1 2.01042V2.99983H0ZM2.93617 0V-1H1.93617V0H2.93617ZM7.88298 0H8.88298V-1H7.88298V0ZM13.8191 0V-1H12.8191V0H13.8191ZM18.766 0H19.766V-1H18.766V0ZM24.7021 0V-1H23.7021V0H24.7021ZM29.6489 0H30.6489V-1H29.6489V0ZM35.5851 0V-1H34.5851V0H35.5851ZM40.5319 0H41.5319V-1H40.5319V0ZM46.4681 0V-1H45.4681V0H46.4681ZM51.4149 0H52.4149V-1H51.4149V0ZM57.3511 0V-1H56.3511V0H57.3511ZM62.2979 0H63.2979V-1H62.2979V0ZM68.234 0V-1H67.234V0H68.234ZM73.1809 0H74.1809V-1H73.1809V0ZM79.117 0V-1H78.117V0H79.117ZM84.0638 0H85.0638V-1H84.0638V0ZM87 2.99983H88V2.01042L87.0107 1.99989L87 2.99983ZM87 32V33H88V32H87ZM0 32H-1V33H0V32ZM0.0106479 3.99977C2.19259 3.97654 3.93617 2.18485 3.93617 0H1.93617C1.93617 1.10732 1.05646 1.98852 -0.0106479 1.99989L0.0106479 3.99977ZM2.93617 1H7.88298V-1H2.93617V1ZM6.88298 0C6.88298 2.19903 8.6495 4 10.8511 4V2C9.77418 2 8.88298 1.11468 8.88298 0H6.88298ZM10.8511 4C13.0526 4 14.8191 2.19903 14.8191 0H12.8191C12.8191 1.11468 11.928 2 10.8511 2V4ZM13.8191 1H18.766V-1H13.8191V1ZM21.734 2C20.6572 2 19.766 1.11468 19.766 0H17.766C17.766 2.19903 19.5325 4 21.734 4V2ZM23.7021 0C23.7021 1.11468 22.8109 2 21.734 2V4C23.9356 4 25.7021 2.19903 25.7021 0H23.7021ZM24.7021 1H29.6489V-1H24.7021V1ZM28.6489 0C28.6489 2.19903 30.4155 4 32.617 4V2C31.5401 2 30.6489 1.11468 30.6489 0H28.6489ZM32.617 4C34.8186 4 36.5851 2.19903 36.5851 0H34.5851C34.5851 1.11468 33.6939 2 32.617 2V4ZM35.5851 1H40.5319V-1H35.5851V1ZM43.5 2C42.4231 2 41.5319 1.11468 41.5319 0H39.5319C39.5319 2.19903 41.2984 4 43.5 4V2ZM45.4681 0C45.4681 1.11468 44.5769 2 43.5 2V4C45.7016 4 47.4681 2.19903 47.4681 0H45.4681ZM46.4681 1H51.4149V-1H46.4681V1ZM50.4149 0C50.4149 2.19903 52.1814 4 54.383 4V2C53.3061 2 52.4149 1.11468 52.4149 0H50.4149ZM54.383 4C56.5845 4 58.3511 2.19903 58.3511 0H56.3511C56.3511 1.11468 55.4599 2 54.383 2V4ZM57.3511 1H62.2979V-1H57.3511V1ZM65.266 2C64.1891 2 63.2979 1.11468 63.2979 0H61.2979C61.2979 2.19903 63.0644 4 65.266 4V2ZM67.234 0C67.234 1.11468 66.3428 2 65.266 2V4C67.4675 4 69.234 2.19903 69.234 0H67.234ZM68.234 1H73.1809V-1H68.234V1ZM72.1809 0C72.1809 2.19903 73.9474 4 76.1489 4V2C75.0721 2 74.1809 1.11468 74.1809 0H72.1809ZM76.1489 4C78.3505 4 80.117 2.19903 80.117 0H78.117C78.117 1.11468 77.2258 2 76.1489 2V4ZM79.117 1H84.0638V-1H79.117V1ZM87.0107 1.99989C85.9435 1.98852 85.0638 1.10732 85.0638 0H83.0638C83.0638 2.18485 84.8074 3.97654 86.9893 3.99977L87.0107 1.99989ZM86 2.99983V32H88V2.99983H86ZM87 31H0V33H87V31ZM1 32V2.99983H-1V32H1Z" fill="#6938EF" mask="url(#path-1-inside-1_171_245)"/>
</svg>
