<svg width="32" height="32" viewBox="0 0 32 32" fill="none" xmlns="http://www.w3.org/2000/svg">
<path d="M0 16C0 7.16344 7.16344 0 16 0V0C24.8366 0 32 7.16344 32 16V16C32 24.8366 24.8366 32 16 32V32C7.16344 32 0 24.8366 0 16V16Z" fill="#F4F3FF"/>
<path d="M16 31.75C7.30152 31.75 0.25 24.6985 0.25 16C0.25 7.30152 7.30152 0.25 16 0.25C24.6985 0.25 31.75 7.30152 31.75 16C31.75 24.6985 24.6985 31.75 16 31.75Z" stroke="#D9D6FE" stroke-width="0.5"/>
<path d="M22.6668 23.5C22.6668 22.337 22.6668 21.7555 22.5233 21.2824C22.2001 20.217 21.3665 19.3834 20.3011 19.0602C19.828 18.9167 19.2465 18.9167 18.0835 18.9167H13.9168C12.7539 18.9167 12.1724 18.9167 11.6992 19.0602C10.6339 19.3834 9.8002 20.217 9.47703 21.2824C9.3335 21.7555 9.3335 22.337 9.3335 23.5M19.7502 12.25C19.7502 14.3211 18.0712 16 16.0002 16C13.9291 16 12.2502 14.3211 12.2502 12.25C12.2502 10.1789 13.9291 8.5 16.0002 8.5C18.0712 8.5 19.7502 10.1789 19.7502 12.25Z" stroke="#696685" stroke-width="1.66667" stroke-linecap="round" stroke-linejoin="round"/>
</svg>
