<svg width="24" height="25" viewBox="0 0 24 25" fill="none" xmlns="http://www.w3.org/2000/svg">
<path d="M22 12V15.1C22 17.3402 22 18.4603 21.564 19.316C21.1805 20.0686 20.5686 20.6805 19.816 21.064C18.9603 21.5 17.8402 21.5 15.6 21.5H8.4C6.15979 21.5 5.03969 21.5 4.18404 21.064C3.43139 20.6805 2.81947 20.0686 2.43597 19.316C2 18.4603 2 17.3402 2 15.1V9.9C2 7.65979 2 6.53969 2.43597 5.68404C2.81947 4.93139 3.43139 4.31947 4.18404 3.93597C5.03969 3.5 6.15979 3.5 8.4 3.5H12.5M19 8.5V2.5M16 5.5H22M16 12.5C16 14.7091 14.2091 16.5 12 16.5C9.79086 16.5 8 14.7091 8 12.5C8 10.2909 9.79086 8.5 12 8.5C14.2091 8.5 16 10.2909 16 12.5Z" stroke="#5E5E5E" stroke-width="2" stroke-linecap="round" stroke-linejoin="round"/>
</svg>
