<svg width="22" height="22" viewBox="0 0 22 22" fill="none" xmlns="http://www.w3.org/2000/svg">
<path d="M21 11V14.1C21 16.3402 21 17.4603 20.564 18.316C20.1805 19.0686 19.5686 19.6805 18.816 20.064C17.9603 20.5 16.8402 20.5 14.6 20.5H7.4C5.15979 20.5 4.03969 20.5 3.18404 20.064C2.43139 19.6805 1.81947 19.0686 1.43597 18.316C1 17.4603 1 16.3402 1 14.1V8.9C1 6.65979 1 5.53969 1.43597 4.68404C1.81947 3.93139 2.43139 3.31947 3.18404 2.93597C4.03969 2.5 5.15979 2.5 7.4 2.5H11.5M18 7.5V1.5M15 4.5H21M15 11.5C15 13.7091 13.2091 15.5 11 15.5C8.79086 15.5 7 13.7091 7 11.5C7 9.29086 8.79086 7.5 11 7.5C13.2091 7.5 15 9.29086 15 11.5Z" stroke="white" stroke-width="2" stroke-linecap="round" stroke-linejoin="round"/>
</svg>
