<svg width="24" height="24" viewBox="0 0 24 24" fill="none" xmlns="http://www.w3.org/2000/svg">
<path d="M18 9.99982L14 5.99982M2.5 21.4998L5.88437 21.1238C6.29786 21.0778 6.5046 21.0549 6.69785 20.9923C6.86929 20.9368 7.03245 20.8584 7.18289 20.7592C7.35245 20.6474 7.49955 20.5003 7.79373 20.2061L21 6.99982C22.1046 5.89525 22.1046 4.10438 21 2.99981C19.8955 1.89525 18.1046 1.89524 17 2.99981L3.79373 16.2061C3.49955 16.5003 3.35246 16.6474 3.24064 16.8169C3.14143 16.9674 3.06301 17.1305 3.00751 17.302C2.94496 17.4952 2.92198 17.702 2.87604 18.1155L2.5 21.4998Z" stroke="white" stroke-width="2" stroke-linecap="round" stroke-linejoin="round"/>
</svg>
